<?xml version="1.0" standalone="no"?>
<!DOCTYPE svg PUBLIC "-//W3C//DTD SVG 20010904//EN"
 "http://www.w3.org/TR/2001/REC-SVG-20010904/DTD/svg10.dtd">
<svg version="1.0" xmlns="http://www.w3.org/2000/svg"
 width="130.000000pt" height="130.000000pt" viewBox="0 0 130.000000 130.000000"
 preserveAspectRatio="xMidYMid meet">
<metadata>
Created by potrace 1.11, written by Peter Selinger 2001-2013
</metadata>
<g transform="translate(0.000000,130.000000) scale(0.100000,-0.100000)"
fill="#000000" stroke="none">
<path d="M542 1270 c-88 -25 -140 -67 -155 -129 -6 -24 8 -172 20 -221 5 -20
8 -14 15 30 5 36 15 61 29 73 24 19 74 22 114 7 17 -6 47 -7 82 -1 96 15 131
-15 134 -114 l0 -30 10 25 c6 14 7 44 3 70 -4 25 -6 50 -4 55 10 35 17 88 13
110 -5 24 -67 93 -78 87 -4 -2 -15 8 -26 21 -24 32 -80 38 -157 17z"/>
<path d="M480 899 c-12 -8 -10 -9 8 -4 16 5 22 2 22 -9 0 -19 16 -21 23 -3 4
9 8 8 16 -3 7 -10 11 -11 11 -3 0 13 -31 33 -52 33 -7 0 -20 -5 -28 -11z"/>
<path d="M676 895 c4 -8 13 -15 21 -15 8 0 11 5 7 11 -4 8 0 9 15 4 12 -4 21
-2 21 4 0 6 -16 11 -35 11 -26 0 -33 -3 -29 -15z"/>
<path d="M771 826 c-9 -11 -8 -24 5 -57 l18 -43 12 35 c18 49 16 57 -6 29
l-20 -25 4 38 c4 42 3 43 -13 23z"/>
<path d="M400 806 c0 -8 5 -18 10 -21 6 -3 10 3 10 14 0 12 -4 21 -10 21 -5 0
-10 -6 -10 -14z"/>
<path d="M370 808 c0 -4 8 -21 19 -38 12 -20 20 -26 23 -18 3 7 -5 24 -18 38
-13 13 -24 21 -24 18z"/>
<path d="M286 744 c-9 -23 22 -54 53 -53 14 0 20 3 14 6 -7 2 -13 11 -13 19 0
17 -12 18 -29 2 -11 -11 -12 -8 -7 15 7 29 -8 38 -18 11z"/>
<path d="M905 735 c-3 -8 -7 -22 -10 -30 -2 -8 2 -15 9 -15 14 0 38 45 29 54
-11 11 -23 6 -28 -9z"/>
<path d="M872 705 c0 -16 2 -22 5 -12 2 9 2 23 0 30 -3 6 -5 -1 -5 -18z"/>
<path d="M550 690 c0 -5 4 -10 9 -10 5 0 11 -9 14 -21 7 -28 60 -23 66 6 2 11
8 23 15 27 6 4 -15 8 -46 8 -32 0 -58 -4 -58 -10z m80 -9 c0 -6 -5 -13 -10
-16 -15 -9 -43 3 -35 15 8 13 45 13 45 1z"/>
<path d="M282 240 c1 -30 -1 -74 -6 -97 -5 -26 -4 -43 2 -43 19 0 29 154 12
180 -8 11 -10 0 -8 -40z"/>
<path d="M930 212 c0 -23 4 -42 9 -42 6 0 7 17 4 38 -8 51 -13 53 -13 4z"/>
</g>
</svg>
